<svg width="767" height="1239" viewBox="0 0 767 1239" fill="none" xmlns="http://www.w3.org/2000/svg">
<g filter="url(#filter0_b_107_41)">
<path d="M80 1.5H686.338C700.364 1.5 710.793 1.50117 719.056 2.17623C727.301 2.84986 733.255 4.18705 738.357 6.78618C747.482 11.436 754.902 18.8556 759.552 27.9815C762.151 33.0826 763.488 39.0374 764.162 47.2822C764.837 55.5446 764.838 65.9739 764.838 80V1158.27C764.838 1172.29 764.837 1182.72 764.162 1190.99C763.488 1199.23 762.151 1205.19 759.552 1210.29C754.902 1219.41 747.482 1226.83 738.357 1231.48C733.255 1234.08 727.301 1235.42 719.056 1236.09C710.793 1236.77 700.364 1236.77 686.338 1236.77H80C65.9739 1236.77 55.5446 1236.77 47.2822 1236.09C39.0374 1235.42 33.0826 1234.08 27.9815 1231.48C18.8556 1226.83 11.436 1219.41 6.78619 1210.29C4.18705 1205.19 2.84986 1199.23 2.17623 1190.99C1.50117 1182.72 1.5 1172.29 1.5 1158.27V79.9999C1.5 65.9739 1.50117 55.5446 2.17623 47.2822C2.84986 39.0374 4.18705 33.0826 6.78618 27.9815C11.436 18.8556 18.8556 11.436 27.9815 6.78618C33.0826 4.18705 39.0374 2.84986 47.2822 2.17623C55.5446 1.50117 65.9739 1.5 80 1.5Z" stroke="url(#paint0_linear_107_41)" stroke-width="3"/>
</g>
<defs>
<filter id="filter0_b_107_41" x="-20" y="-20" width="806.338" height="1278.27" filterUnits="userSpaceOnUse" color-interpolation-filters="sRGB">
<feFlood flood-opacity="0" result="BackgroundImageFix"/>
<feGaussianBlur in="BackgroundImageFix" stdDeviation="10"/>
<feComposite in2="SourceAlpha" operator="in" result="effect1_backgroundBlur_107_41"/>
<feBlend mode="normal" in="SourceGraphic" in2="effect1_backgroundBlur_107_41" result="shape"/>
</filter>
<linearGradient id="paint0_linear_107_41" x1="17.4192" y1="6.54289" x2="1100.32" y2="997.664" gradientUnits="userSpaceOnUse">
<stop stop-color="#F4F4F4" stop-opacity="0.6"/>
<stop offset="1" stop-color="#F4F4F4" stop-opacity="0.4"/>
</linearGradient>
</defs>
</svg>
