<svg width="490" height="123" viewBox="0 0 490 123" fill="none" xmlns="http://www.w3.org/2000/svg">
<path d="M0 9.81C0 9.05785 0 8.68178 0.0224748 8.36436C0.33893 3.8949 3.8949 0.33893 8.36436 0.0224748C8.68178 0 9.05785 0 9.81 0H480.19C480.942 0 481.318 0 481.636 0.0224748C486.105 0.33893 489.661 3.8949 489.978 8.36436C490 8.68178 490 9.05785 490 9.81V113.19C490 113.942 490 114.318 489.978 114.636C489.661 119.105 486.105 122.661 481.636 122.978C481.318 123 480.942 123 480.19 123H9.81001C9.05786 123 8.68178 123 8.36436 122.978C3.8949 122.661 0.33893 119.105 0.0224748 114.636C0 114.318 0 113.942 0 113.19V9.81Z" fill="#8E7CC3"/>
</svg>
