<svg width="490" height="124" viewBox="0 0 490 124" fill="none" xmlns="http://www.w3.org/2000/svg">
<path d="M0 9.81C0 9.05785 0 8.68178 0.0224748 8.36436C0.33893 3.8949 3.8949 0.33893 8.36436 0.0224748C8.68178 0 9.05785 0 9.81 0H480.19C480.942 0 481.318 0 481.636 0.0224748C486.105 0.33893 489.661 3.8949 489.978 8.36436C490 8.68178 490 9.05785 490 9.81V114.19C490 114.942 490 115.318 489.978 115.636C489.661 120.105 486.105 123.661 481.636 123.978C481.318 124 480.942 124 480.19 124H9.81001C9.05786 124 8.68178 124 8.36436 123.978C3.8949 123.661 0.33893 120.105 0.0224748 115.636C0 115.318 0 114.942 0 114.19V9.81Z" fill="#8E7CC3"/>
</svg>
