<svg width="616" height="277" viewBox="0 0 616 277" fill="none" xmlns="http://www.w3.org/2000/svg">
<path d="M0 9.81C0 9.05785 0 8.68178 0.0224748 8.36436C0.33893 3.8949 3.8949 0.33893 8.36436 0.0224748C8.68178 0 9.05785 0 9.81 0H606.19C606.942 0 607.318 0 607.636 0.0224748C612.105 0.33893 615.661 3.8949 615.978 8.36436C616 8.68178 616 9.05785 616 9.81V267.19C616 267.942 616 268.318 615.978 268.636C615.661 273.105 612.105 276.661 607.636 276.978C607.318 277 606.942 277 606.19 277H9.81001C9.05786 277 8.68178 277 8.36436 276.978C3.8949 276.661 0.33893 273.105 0.0224748 268.636C0 268.318 0 267.942 0 267.19V9.81Z" fill="#EEA942"/>
</svg>
