<svg width="606" height="277" viewBox="0 0 606 277" fill="none" xmlns="http://www.w3.org/2000/svg">
<path d="M0 9.81C0 9.05785 0 8.68178 0.0224748 8.36436C0.33893 3.8949 3.8949 0.33893 8.36436 0.0224748C8.68178 0 9.05785 0 9.81 0H596.19C596.942 0 597.318 0 597.636 0.0224748C602.105 0.33893 605.661 3.8949 605.978 8.36436C606 8.68178 606 9.05785 606 9.81V267.19C606 267.942 606 268.318 605.978 268.636C605.661 273.105 602.105 276.661 597.636 276.978C597.318 277 596.942 277 596.19 277H9.81002C9.05786 277 8.68178 277 8.36436 276.978C3.8949 276.661 0.33893 273.105 0.0224748 268.636C0 268.318 0 267.942 0 267.19V9.81Z" fill="#EEA942"/>
</svg>
